<svg xmlns="http://www.w3.org/2000/svg" viewBox="0 0 800 600" fill="none">
  <!-- Background elements -->
  <rect width="800" height="600" fill="#E6F0FF" />
  <circle cx="200" cy="500" r="150" fill="#D1E0FF" />
  <circle cx="700" cy="250" r="200" fill="#D1E0FF" />
  
  <!-- Document and certificate -->
  <rect x="250" y="150" width="300" height="400" rx="8" fill="white" stroke="#3B82F6" stroke-width="4" />
  <rect x="280" y="200" width="240" height="30" rx="4" fill="#EBF5FF" />
  <rect x="280" y="250" width="240" height="20" rx="4" fill="#EBF5FF" />
  <rect x="280" y="290" width="240" height="20" rx="4" fill="#EBF5FF" />
  <rect x="280" y="330" width="240" height="20" rx="4" fill="#EBF5FF" />
  <rect x="280" y="370" width="240" height="20" rx="4" fill="#EBF5FF" />
  
  <!-- QR code symbol -->
  <rect x="350" y="410" width="100" height="100" rx="4" fill="#EBF5FF" />
  <rect x="370" y="430" width="20" height="20" fill="#3B82F6" />
  <rect x="410" y="430" width="20" height="20" fill="#3B82F6" />
  <rect x="370" y="470" width="20" height="20" fill="#3B82F6" />
  <rect x="390" y="470" width="20" height="20" fill="#3B82F6" />
  <rect x="410" y="470" width="20" height="20" fill="#3B82F6" />
  
  <!-- Blockchain elements -->
  <rect x="600" y="150" width="80" height="80" rx="8" fill="#3B82F6" />
  <rect x="610" y="350" width="60" height="60" rx="8" fill="#3B82F6" />
  <rect x="550" y="250" width="50" height="50" rx="8" fill="#3B82F6" />
  <rect x="680" y="270" width="40" height="40" rx="8" fill="#3B82F6" />
  
  <!-- Connection lines -->
  <line x1="600" y1="190" x2="550" y2="250" stroke="#3B82F6" stroke-width="3" />
  <line x1="600" y1="350" x2="550" y2="300" stroke="#3B82F6" stroke-width="3" />
  <line x1="680" y1="350" x2="680" y2="310" stroke="#3B82F6" stroke-width="3" />
  <line x1="680" y1="270" x2="650" y2="230" stroke="#3B82F6" stroke-width="3" />
  <line x1="550" y1="250" x2="450" y2="250" stroke="#3B82F6" stroke-width="3" stroke-dasharray="5,5" />
  
  <!-- Document header -->
  <rect x="280" y="170" width="240" height="15" rx="2" fill="#3B82F6" />
</svg> 